<svg width="20" height="20" viewBox="0 0 20 20" fill="none" xmlns="http://www.w3.org/2000/svg">
<g clip-path="url(#clip0_3_10747)">
<path d="M1.66797 10H3.33464" stroke="#2A313C" stroke-width="1.5" stroke-linecap="round" stroke-linejoin="round"/>
<path d="M16.668 10H18.3346" stroke="#2A313C" stroke-width="1.5" stroke-linecap="round" stroke-linejoin="round"/>
<path d="M3.33203 9.99967C3.33203 10.4417 3.50763 10.8656 3.82019 11.1782C4.13275 11.4907 4.55667 11.6663 4.9987 11.6663C5.44073 11.6663 5.86465 11.4907 6.17721 11.1782C6.48977 10.8656 6.66536 10.4417 6.66536 9.99967C6.66536 9.55765 6.48977 9.13372 6.17721 8.82116C5.86465 8.5086 5.44073 8.33301 4.9987 8.33301C4.55667 8.33301 4.13275 8.5086 3.82019 8.82116C3.50763 9.13372 3.33203 9.55765 3.33203 9.99967Z" stroke="#2A313C" stroke-width="1.5" stroke-linecap="round" stroke-linejoin="round"/>
<path d="M13.332 9.99967C13.332 10.4417 13.5076 10.8656 13.8202 11.1782C14.1327 11.4907 14.5567 11.6663 14.9987 11.6663C15.4407 11.6663 15.8646 11.4907 16.1772 11.1782C16.4898 10.8656 16.6654 10.4417 16.6654 9.99967C16.6654 9.55765 16.4898 9.13372 16.1772 8.82116C15.8646 8.5086 15.4407 8.33301 14.9987 8.33301C14.5567 8.33301 14.1327 8.5086 13.8202 8.82116C13.5076 9.13372 13.332 9.55765 13.332 9.99967Z" stroke="#2A313C" stroke-width="1.5" stroke-linecap="round" stroke-linejoin="round"/>
<path d="M6.66797 10H13.3346" stroke="#2A313C" stroke-width="1.5" stroke-linecap="round" stroke-linejoin="round"/>
</g>
<defs>
<clipPath id="clip0_3_10747">
<rect width="20" height="20" fill="white"/>
</clipPath>
</defs>
</svg>
