<svg width="24" height="24" viewBox="0 0 24 24" fill="none" xmlns="http://www.w3.org/2000/svg">
<g clip-path="url(#clip0_17_12759)">
<path d="M3.99963 20H7.99963L18.4996 9.50003C18.7623 9.23738 18.9706 8.92558 19.1128 8.58242C19.2549 8.23926 19.3281 7.87146 19.3281 7.50003C19.3281 7.12859 19.2549 6.7608 19.1128 6.41764C18.9706 6.07447 18.7623 5.76267 18.4996 5.50003C18.237 5.23738 17.9252 5.02904 17.582 4.8869C17.2389 4.74476 16.8711 4.6716 16.4996 4.6716C16.1282 4.6716 15.7604 4.74476 15.4172 4.8869C15.0741 5.02904 14.7623 5.23738 14.4996 5.50003L3.99963 16V20Z" stroke="#2A313C" stroke-width="1.5" stroke-linecap="round" stroke-linejoin="round"/>
<path d="M13.5 6.5L17.5 10.5" stroke="#2A313C" stroke-width="1.5" stroke-linecap="round" stroke-linejoin="round"/>
</g>
<defs>
<clipPath id="clip0_17_12759">
<rect width="24" height="24" fill="white"/>
</clipPath>
</defs>
</svg>
