<svg width="20" height="20" viewBox="0 0 20 20" fill="none" xmlns="http://www.w3.org/2000/svg">
<g clip-path="url(#clip0_3_10559)">
<path d="M6.66634 4.16675H4.99967C4.55765 4.16675 4.13372 4.34234 3.82116 4.6549C3.5086 4.96746 3.33301 5.39139 3.33301 5.83341V15.8334C3.33301 16.2754 3.5086 16.6994 3.82116 17.0119C4.13372 17.3245 4.55765 17.5001 4.99967 17.5001H9.74717" stroke="#2A313C" stroke-width="1.5" stroke-linecap="round" stroke-linejoin="round"/>
<path d="M15.0003 10.0001V5.83341C15.0003 5.39139 14.8247 4.96746 14.5122 4.6549C14.1996 4.34234 13.7757 4.16675 13.3337 4.16675H11.667" stroke="#2A313C" stroke-width="1.5" stroke-linecap="round" stroke-linejoin="round"/>
<path d="M6.66699 4.16667C6.66699 3.72464 6.84259 3.30072 7.15515 2.98816C7.46771 2.67559 7.89163 2.5 8.33366 2.5H10.0003C10.4424 2.5 10.8663 2.67559 11.1788 2.98816C11.4914 3.30072 11.667 3.72464 11.667 4.16667C11.667 4.60869 11.4914 5.03262 11.1788 5.34518C10.8663 5.65774 10.4424 5.83333 10.0003 5.83333H8.33366C7.89163 5.83333 7.46771 5.65774 7.15515 5.34518C6.84259 5.03262 6.66699 4.60869 6.66699 4.16667Z" stroke="#2A313C" stroke-width="1.5" stroke-linecap="round" stroke-linejoin="round"/>
<path d="M6.66699 9.16675H10.0003" stroke="#2A313C" stroke-width="1.5" stroke-linecap="round" stroke-linejoin="round"/>
<path d="M6.66699 12.5H9.16699" stroke="#2A313C" stroke-width="1.5" stroke-linecap="round" stroke-linejoin="round"/>
<path d="M11.667 14.5833C11.667 15.1359 11.8865 15.6658 12.2772 16.0565C12.6679 16.4472 13.1978 16.6667 13.7503 16.6667C14.3029 16.6667 14.8328 16.4472 15.2235 16.0565C15.6142 15.6658 15.8337 15.1359 15.8337 14.5833C15.8337 14.0308 15.6142 13.5009 15.2235 13.1102C14.8328 12.7195 14.3029 12.5 13.7503 12.5C13.1978 12.5 12.6679 12.7195 12.2772 13.1102C11.8865 13.5009 11.667 14.0308 11.667 14.5833Z" stroke="#2A313C" stroke-width="1.5" stroke-linecap="round" stroke-linejoin="round"/>
<path d="M15.417 16.25L17.5003 18.3333" stroke="#2A313C" stroke-width="1.5" stroke-linecap="round" stroke-linejoin="round"/>
</g>
<defs>
<clipPath id="clip0_3_10559">
<rect width="20" height="20" fill="white"/>
</clipPath>
</defs>
</svg>
