<svg width="24" height="24" viewBox="0 0 24 24" fill="none" xmlns="http://www.w3.org/2000/svg">
<path d="M13.2275 21.925C11.1983 22.1761 9.14094 21.7992 7.33257 20.8451C5.52419 19.8909 4.05177 18.4053 3.11372 16.5885C2.17567 14.7717 1.81707 12.7111 2.08626 10.6842C2.35544 8.65733 3.23947 6.76168 4.61921 5.25272C5.99895 3.74375 7.80809 2.694 9.80283 2.24491C11.7976 1.79582 13.882 1.96899 15.7753 2.74107C17.6686 3.51316 19.2797 4.84706 20.3916 6.56301C21.5034 8.27896 22.0625 10.2945 21.9935 12.338" stroke="#2A313C" stroke-width="1.5" stroke-linecap="round" stroke-linejoin="round"/>
<path d="M12 6V12L13.562 12.781" stroke="#2A313C" stroke-width="1.5" stroke-linecap="round" stroke-linejoin="round"/>
<path d="M14.0004 18L18.0004 14L22.0004 18" stroke="#2A313C" stroke-width="1.5" stroke-linecap="round" stroke-linejoin="round"/>
<path d="M18 22V14" stroke="#2A313C" stroke-width="1.5" stroke-linecap="round" stroke-linejoin="round"/>
</svg>
