<svg width="20" height="20" viewBox="0 0 20 20" fill="none" xmlns="http://www.w3.org/2000/svg">
<path fill-rule="evenodd" clip-rule="evenodd" d="M5 1.66669C4.33696 1.66669 3.70107 1.93008 3.23223 2.39892C2.76339 2.86776 2.5 3.50365 2.5 4.16669V15.8334C2.5 16.4964 2.76339 17.1323 3.23223 17.6011C3.70107 18.07 4.33696 18.3334 5 18.3334H10C10.663 18.3334 11.2989 18.07 11.7678 17.6011C12.2366 17.1323 12.5 16.4964 12.5 15.8334V4.16669C12.5 3.50365 12.2366 2.86776 11.7678 2.39892C11.2989 1.93008 10.663 1.66669 10 1.66669H5ZM13.5775 6.07752C13.7338 5.92129 13.9457 5.83353 14.1667 5.83353C14.3876 5.83353 14.5996 5.92129 14.7558 6.07752L18.0892 9.41085C18.2454 9.56713 18.3332 9.77905 18.3332 10C18.3332 10.221 18.2454 10.4329 18.0892 10.5892L14.7558 13.9225C14.5987 14.0743 14.3882 14.1583 14.1697 14.1564C13.9512 14.1545 13.7422 14.0669 13.5877 13.9124C13.4331 13.7579 13.3455 13.5489 13.3436 13.3304C13.3417 13.1119 13.4257 12.9014 13.5775 12.7442L15.4883 10.8334H8.33333C8.11232 10.8334 7.90036 10.7456 7.74408 10.5893C7.5878 10.433 7.5 10.221 7.5 10C7.5 9.77901 7.5878 9.56705 7.74408 9.41077C7.90036 9.25449 8.11232 9.16669 8.33333 9.16669H15.4883L13.5775 7.25585C13.4213 7.09958 13.3335 6.88766 13.3335 6.66669C13.3335 6.44572 13.4213 6.23379 13.5775 6.07752Z" fill="#2A313C"/>
</svg>
